<?xml version="1.0" encoding="UTF-8" standalone="no"?>
<svg
   version="1.0"
   width="936.57788pt"
   height="354.08615pt"
   viewBox="0 0 936.57788 354.08615"
   preserveAspectRatio="xMidYMid"
   id="svg21"
   xmlns="http://www.w3.org/2000/svg"
   xmlns:svg="http://www.w3.org/2000/svg">
  <defs
     id="defs21" />
  <g
     transform="matrix(0.1,0,0,-0.1,-31.282052,364.82971)"
     fill="#000000"
     stroke="none"
     id="g21">
    <path
       d="m 1726.2939,3628.7408 c -232,-54 -366,-110 -534,-222 -187,-125 -329.99997,-282 -425.99995,-470 -104,-202 -143,-379 -144,-648 -1,-200 5,-238 62,-374 93,-223 227.99998,-344 446.99995,-402 111,-30 336,-37 460,-15 236,41 491,171 681,349 l 76,70 46,-16 c 66,-24 100,-21 170,14 69,34 161,127 219,221 20,32 39,58 43,58 3,0 4,-49 2,-109 -5,-118 5,-169 42,-209 64,-71 193,-90 276,-40 51,29 178,158 259,261 30,37 55,67 56,65 2,-2 -10,-57 -27,-123 -35,-141 -49,-224 -42,-246 3,-11 21,-19 52,-24 98,-14 106,-13 124,24 22,43 37,59 35,36 -3,-34 21,-26 36,12 11,28 12,42 3,55 -10,17 -9,23 19,92 6,15 5,17 -5,11 -10,-6 -11,-4 -4,6 14,21 34,83 29,88 -3,2 -14,-18 -25,-45 -37,-88 -39,-90 -39,-74 0,8 11,42 25,75 14,33 26,68 26,78 -1,9 5,17 12,17 15,0 42,57 32,67 -3,3 -6,1 -6,-5 0,-7 -4,-12 -9,-12 -13,0 6,55 23,70 10,8 12,5 8,-15 -2,-15 0,-25 7,-25 6,0 11,9 11,19 0,11 16,38 35,62 20,23 41,51 47,63 41,78 278,285 394,344 21,11 48,29 58,41 16,18 17,25 7,47 -11,25 -14,26 -69,21 -74,-8 -194,-68 -292,-146 l -75,-60 -5,85 c -6,100 -20,118 -96,130 -65,9 -78,-7 -125,-167 -21,-74 -49,-147 -61,-164 -174,-243 -438,-553 -496,-584 -33,-18 -38,6 -23,112 28,197 105,487 171,642 54,126 58,158 28,188 -16,16 -41,26 -78,31 -55,8 -55,7 -91,-33 l -36,-40 -100,2 c -98,2 -101,1 -176,-37 -92,-46 -216,-158 -297,-267 -73,-99 -146,-245 -168,-339 -17,-73 -19,-76 -112,-171 -281,-285 -584,-401 -864,-329 -156,40 -239,104 -310,240 -128.99997,244 -117.99997,597 27,885 168,336 563,624 929,676 82,12 84,12 138,-16 90,-45 130,-95 143,-177 11,-73 -34,-219 -85,-275 -26,-28 -19,-60 24,-108 50,-58 101,-79 172,-71 33,3 66,12 72,19 6,6 27,50 47,97 95,225 90,352 -18,469 -83,89 -233,161 -435,210 -137,33 -182,33 -300,6 z m -690,-793 c 0,-5 -7,-17 -15,-28 -14,-18 -14,-17 -4,9 12,27 19,34 19,19 z m -74.99997,-159 c -24,-59 -40,-133 -62,-275 -3,-21 -8,-38 -12,-38 -8,0 -7,62 1,75 3,6 6,26 5,45 0,53 34,169 70,243 27,54 25,18 -2,-50 z m 1984.99997,-25 c 0,-19 -72,-147 -136,-243 -112,-168 -304,-374 -337,-362 -8,2 -12,28 -12,68 0,49 7,78 28,123 69,148 240,356 332,404 45,24 125,30 125,10 z m 195,-135 c -3,-16 -10,-32 -15,-37 -5,-5 -4,7 2,27 13,43 23,50 13,10 z m -2245.99997,-243 c 0,-23 -1,-23 -9,-5 -5,11 -9,29 -9,40 -1,17 1,17 9,5 5,-8 9,-26 9,-40 z m 2147.99997,-112 c -3,-8 -6,-5 -6,6 -1,11 2,17 5,13 3,-3 4,-12 1,-19 z m -2141.99997,2 c 3,-5 1,-10 -4,-10 -6,0 -11,5 -11,10 0,6 2,10 4,10 3,0 8,-4 11,-10 z m 65,-215 c 0,-8 6,-20 14,-27 7,-8 16,-25 19.99997,-38 l 7,-25 -19.99997,23 c -22,25 -61,122 -61,150 0,9 9,-3 20,-27 11,-24 20,-49 20,-56 z m 2643.99997,-32 c -6,-25 -24,-56 -24,-41 0,10 22,68 26,68 2,0 1,-12 -2,-27 z m -61,-48 c -3,-9 -8,-14 -10,-11 -3,3 -2,9 2,15 9,16 15,13 8,-4 z m -2487,-77 29,-33 -32,29 c -31,28 -38,36 -30,36 2,0 16,-15 33,-32 z m 2494,18 c 0,-3 -4,-8 -10,-11 -5,-3 -10,-1 -10,4 0,6 5,11 10,11 6,0 10,-2 10,-4 z"
       id="path1"
       style="fill:#1969af;fill-opacity:1" />
    <path
       d="m 4563.7214,1825.9175 c -35,-13 -50,-37 -50,-75 0,-83 88,-124 170,-80 86,47 46,149 -63,158 -23,2 -49,1 -57,-3 z"
       id="path2"
       style="fill:#1969af;fill-opacity:1" />
    <path
       d="m 5182.2939,2928.7408 c -33,-14 -70,-34 -83,-46 -31,-30 -61,-113 -69,-194 l -7,-66 -105,-122 c -58,-67 -157,-187 -222,-267 -130,-161 -269,-300 -300,-300 -63,0 -18,200 113,495 65,146 71,166 71,228 1,60 -2,71 -22,88 -29,23 -96,42 -120,35 -19,-6 -227,-420 -258,-511 -25,-76 -31,-259 -9,-324 28,-86 124,-143 212,-126 116,21 282,167 478,420 135,175 194,245 206,245 5,0 31,-45 59,-99 l 49,-99 -63,-52 c -82,-66 -205,-204 -234,-262 -62,-125 11,-208 181,-208 124,0 235,48 321,139 85,92 110,184 82,304 -9,38 -16,72 -16,76 0,9 126,61 190,79 48,14 110,24 110,18 0,-3 -29,-106 -65,-230 -71,-247 -80,-313 -42,-320 12,-2 48,-10 80,-17 64,-14 89,-7 95,27 2,10 12,28 22,39 10,11 65,115 123,230 117,231 196,360 276,447 55,60 117,105 129,93 4,-4 9,-46 10,-94 6,-145 -40,-351 -127,-574 -54,-139 -53,-187 4,-187 28,0 45,-18 45,-48 0,-18 4,-22 18,-18 9,3 30,8 45,12 32,7 40,20 96,173 60,160 105,247 209,412 96,149 244,327 322,388 l 45,34 3,-24 c 4,-30 -13,-103 -78,-354 -80,-304 -80,-434 -3,-525 23,-28 52,-43 38,-20 -3,6 0,10 7,10 7,0 18,-10 23,-22 13,-29 64,-42 114,-28 60,16 151,81 218,156 106,119 114,125 129,113 8,-6 14,-19 14,-29 0,-30 57,-97 102,-119 95,-46 184,-15 296,103 38,40 84,98 103,129 18,32 37,57 41,57 4,0 4,-46 1,-102 -8,-154 15,-216 98,-258 54,-28 119,-35 176,-20 41,11 65,31 169,134 136,136 243,268 356,436 79,119 109,179 73,150 -17,-14 -18,-13 -11,5 12,32 15,85 4,85 -5,0 -6,6 -3,13 14,26 -44,-45 -162,-199 -171,-224 -446,-534 -474,-534 -5,0 -13,8 -16,17 -17,45 87,507 152,673 86,221 89,239 45,271 -14,9 -47,20 -73,24 -47,6 -49,5 -92,-38 l -43,-44 -58,9 c -109,17 -216,-24 -338,-129 -47,-40 -164,-172 -321,-363 -249,-303 -355,-420 -380,-420 -8,0 -16,9 -20,19 -6,20 24,193 52,296 9,33 20,78 24,100 6,34 37,155 65,255 6,21 5,23 -8,13 -17,-15 -29,-7 -21,13 3,8 13,14 23,14 22,0 30,27 30,100 0,69 -30,117 -97,157 -85,49 -193,31 -325,-56 -88,-58 -209,-183 -263,-270 -44,-73 -53,-68 -54,29 -1,76 -17,124 -53,166 -103,117 -264,85 -398,-80 -25,-30 -48,-55 -52,-56 -5,0 -8,27 -8,60 0,85 -27,135 -86,161 -25,11 -57,19 -72,17 -33,-4 -44,-34 -70,-187 l -17,-104 -69,-20 c -38,-10 -123,-41 -190,-68 -66,-28 -129,-53 -138,-56 -13,-4 -27,15 -64,88 l -47,94 6,80 c 3,44 17,123 30,175 14,52 24,96 23,97 -1,1 -24,4 -51,7 -39,4 -63,0 -109,-19 z m 2970,-289 c -9,-38 -99,-191 -171,-291 -78,-109 -225,-270 -267,-291 -41,-21 -50,-7 -45,67 9,102 123,294 252,424 80,79 142,115 199,115 36,0 38,-2 32,-24 z m 202,-127 c -6,-16 -12,-28 -14,-26 -5,5 13,57 20,57 3,0 0,-14 -6,-31 z m -4082,-246 c -10,-10 -19,5 -10,18 6,11 8,11 12,0 2,-7 1,-15 -2,-18 z m 2854,-11 c 0,-5 -7,-17 -16,-28 -8,-10 -14,-14 -11,-9 2,6 7,18 10,28 7,17 17,23 17,9 z m -1674,-74 3,-53 -9,49 c -5,26 -11,55 -15,65 -5,12 -3,13 6,4 6,-6 13,-36 15,-65 z m 1134,56 c 0,-8 -5,-12 -10,-9 -6,4 -8,11 -5,16 9,14 15,11 15,-7 z m -831,-36 c -7,-13 -14,-18 -16,-11 -3,7 1,22 8,35 7,13 14,18 16,11 3,-7 -1,-22 -8,-35 z m 2456,22 c 3,-5 1,-10 -4,-10 -6,0 -11,5 -11,10 0,6 2,10 4,10 3,0 8,-4 11,-10 z m 48,-55 c -3,-9 -8,-14 -10,-11 -3,3 -2,9 2,15 9,16 15,13 8,-4 z m -3933,1 c 0,-3 -4,-8 -10,-11 -5,-3 -10,-1 -10,4 0,6 5,11 10,11 6,0 10,-2 10,-4 z m 920,-57 c 0,-118 -78,-213 -192,-234 -35,-7 -78,7 -78,24 0,28 244,256 262,245 4,-3 8,-19 8,-35 z m -923,-26 c -3,-10 -5,-4 -5,12 0,17 2,24 5,18 2,-7 2,-21 0,-30 z m 2763,27 c 0,-5 -7,-10 -16,-10 -8,0 -12,5 -9,10 3,6 10,10 16,10 5,0 9,-4 9,-10 z m 40,-34 c 0,-3 -4,-8 -10,-11 -5,-3 -10,-1 -10,4 0,6 5,11 10,11 6,0 10,-2 10,-4 z"
       id="path3"
       style="fill:#1969af;fill-opacity:1" />
    <path
       d="m 9638,1693 c 6,-2 9,-9 6,-15 -4,-6 2,-5 15,1 28,16 26,21 -6,20 -16,0 -22,-3 -15,-6 z"
       id="path4"
       style="fill:#e86a28;fill-opacity:1" />
    <path
       d="m 9094,1656 c -4,-9 -4,-19 -1,-22 8,-8 137,8 137,17 0,5 -8,9 -19,9 -10,0 -39,3 -64,6 -38,6 -48,4 -53,-10 z"
       id="path5"
       style="fill:#e86a28;fill-opacity:1" />
    <path
       d="m 9487,1621 c -20,-10 -58,-22 -84,-26 -27,-4 -52,-10 -58,-15 -10,-8 -151,-47 -219,-60 -25,-5 -46,-3 -63,5 -30,16 -54,10 -46,-11 3,-8 1,-14 -5,-14 -5,0 -12,7 -16,15 -3,8 -10,15 -15,15 -6,0 -8,-7 -5,-15 5,-11 -1,-15 -17,-15 -20,0 -21,2 -9,11 12,9 11,9 -5,4 -46,-16 -84,-22 -87,-13 -5,13 -100,13 -123,0 -17,-10 -16,-11 11,-6 17,3 34,1 38,-4 5,-9 -12,-16 -111,-47 -23,-7 -14,11 12,25 42,23 22,21 -71,-6 -128,-38 -416,-115 -436,-117 -10,-1 -18,-5 -18,-10 0,-5 -12,-7 -27,-4 -26,5 -131,-20 -413,-97 -167,-46 -290,-84 -312,-96 -26,-15 -105,-25 -93,-12 6,6 21,12 35,14 l 25,3 -22,13 c -19,10 -39,10 -110,-3 -49,-9 -95,-19 -103,-22 -8,-3 -37,-7 -63,-9 -65,-6 -233,-41 -281,-60 -22,-9 -64,-15 -93,-15 -29,0 -53,-5 -53,-10 0,-5 -6,-9 -14,-9 -19,0 -48,-29 -41,-41 3,-4 -7,-11 -22,-14 -15,-4 -37,-8 -48,-11 -49,-10 -293,-44 -320,-43 -16,0 -47,-3 -68,-7 -31,-5 -41,-3 -57,16 -11,12 -17,26 -14,31 3,5 -14,7 -38,4 -266,-30 -408,-37 -778,-40 -223,-1 -450,-8 -505,-14 -123,-14 -404,-27 -545,-25 -402,5 -914,32 -1140,59 -69,9 -183,23 -255,31 -71,9 -204,26 -295,39 -91,13 -187,27 -215,30 -70,9 -253,41 -425,75 -80,16 -244,45 -365,65 -121,20 -312,51 -425,70 -113,18 -236,36 -275,40 -38,4 -82,13 -98,20 -15,8 -25,9 -22,4 8,-12 -70,-12 -113,0 -17,5 -32,6 -32,1 0,-5 -29,-8 -65,-8 -47,1 -70,-3 -83,-15 -10,-9 -23,-17 -28,-17 -16,0 -43,-68 -30,-74 7,-3 4,-11 -8,-20 -15,-12 -17,-18 -7,-30 7,-8 11,-20 10,-28 -3,-21 12,-48 24,-41 5,3 15,0 21,-8 13,-16 33,-28 178,-103 112,-57 225,-96 563,-192 110,-31 292,-83 405,-116 754,-217 1376,-354 1940,-427 85,-11 191,-26 235,-32 44,-7 101,-12 128,-13 26,0 47,-4 47,-8 0,-5 12,-8 28,-8 21,0 24,2 12,10 -9,6 -10,10 -3,10 6,0 14,-4 18,-9 3,-5 21,-7 40,-4 19,3 42,2 52,-2 32,-14 158,-35 208,-34 h 20 l -20,10 c -13,6 17,7 85,3 62,-3 108,-11 112,-17 4,-7 53,-15 120,-19 62,-4 133,-10 157,-14 31,-4 42,-3 37,5 -5,7 5,11 29,11 20,0 34,-4 30,-9 -17,-29 839,-8 1190,30 198,21 256,25 261,17 3,-4 -8,-10 -23,-14 -15,-3 -32,-7 -38,-9 -5,-1 49,-1 120,1 72,3 152,11 180,19 l 50,15 -75,-5 c -41,-3 -93,-8 -115,-12 -26,-3 -36,-2 -30,4 6,5 73,18 150,28 77,10 142,21 145,24 5,7 160,44 235,57 l 40,7 -29,12 c -27,12 -28,13 -9,19 36,11 197,35 202,30 10,-10 -21,-21 -90,-34 -39,-6 -68,-15 -64,-18 8,-9 178,-3 236,8 29,6 63,10 77,10 20,0 22,-3 12,-14 -6,-8 -21,-17 -33,-19 -12,-3 10,-3 48,0 90,6 387,70 335,72 -16,1 -130,-16 -167,-24 -13,-3 -23,-1 -23,5 0,5 18,13 41,16 22,4 46,13 54,20 7,8 20,14 27,14 8,0 19,5 25,11 5,5 48,17 93,25 89,15 99,19 84,34 -9,9 -80,-4 -121,-23 -11,-5 -26,-6 -32,-3 -6,4 -11,2 -11,-3 0,-6 -8,-11 -17,-11 -16,0 -16,2 -3,11 12,8 11,9 -5,5 -11,-3 -51,-12 -90,-21 -38,-8 -80,-18 -92,-20 -44,-10 -22,13 33,34 62,23 78,26 69,11 -3,-6 -1,-10 4,-10 6,0 11,6 11,13 0,16 241,79 254,67 5,-5 15,-2 23,6 9,9 24,12 39,8 13,-3 24,-2 24,4 0,10 26,22 100,43 25,7 50,17 55,22 6,6 3,7 -10,4 -103,-30 -95,-10 10,23 126,39 235,70 246,70 5,0 7,-5 4,-10 -3,-6 1,-10 10,-10 9,0 14,-4 10,-10 -7,-11 52,8 78,26 11,7 34,10 56,7 26,-4 41,0 50,11 14,17 46,23 36,7 -7,-12 31,-25 45,-16 5,3 17,-10 26,-29 17,-35 17,-35 53,-21 20,7 72,19 116,26 44,8 72,15 62,17 -9,2 -17,7 -17,12 0,4 -9,6 -20,3 -11,-3 -20,0 -20,6 0,6 9,11 20,11 11,0 20,5 20,10 0,6 -7,10 -16,10 -9,0 -12,5 -8,12 5,8 2,9 -9,5 -10,-3 -17,-2 -17,3 0,6 4,10 8,10 5,0 17,7 28,16 18,15 18,15 -3,5 -12,-6 -37,-11 -55,-11 -31,1 -32,1 -14,15 11,8 31,15 45,15 19,0 22,3 12,9 -8,5 -20,7 -27,4 -17,-6 -26,13 -11,24 6,6 26,14 42,18 27,6 28,8 10,15 -18,7 -18,9 8,19 16,6 35,11 43,11 8,0 14,5 14,10 0,6 9,10 19,10 11,0 28,11 38,24 10,12 32,31 48,40 27,15 27,17 5,11 -14,-4 -35,-9 -47,-12 -13,-3 -23,-8 -23,-12 0,-3 -11,-7 -25,-7 -31,-2 -32,9 -2,24 21,10 20,11 -10,11 -51,1 -38,32 19,46 15,4 33,14 40,23 12,14 9,15 -27,9 -24,-4 -34,-3 -26,2 7,5 11,14 7,19 -4,7 8,14 31,17 21,4 63,19 93,33 66,32 65,31 58,38 -4,3 -43,-6 -88,-20 -44,-14 -84,-26 -87,-26 -6,0 1,36 12,64 8,18 5,19 -41,13 -45,-6 -47,-5 -30,8 11,8 25,15 30,15 6,0 4,5 -4,11 -12,8 -11,9 6,4 12,-3 43,2 69,10 26,9 49,14 53,11 3,-3 15,0 26,7 23,14 140,62 171,70 11,3 46,15 77,26 32,12 69,21 83,21 14,0 47,10 73,21 106,48 133,61 130,65 -2,2 -40,-8 -83,-21 -89,-28 -95,-29 -95,-16 0,5 17,15 37,22 34,11 35,13 18,25 -10,8 -17,15 -14,16 32,20 163,86 229,115 22,10 23,12 5,12 -12,1 -37,-7 -58,-18 z m -267,-99 c 0,-4 -15,-13 -32,-21 -29,-11 -31,-14 -14,-20 17,-6 15,-9 -15,-23 -19,-9 -51,-22 -71,-29 -21,-7 -38,-17 -38,-21 0,-4 -6,-8 -13,-8 -8,0 -22,-9 -33,-21 -13,-14 -25,-18 -42,-14 -13,3 -31,0 -39,-7 -17,-14 -136,-21 -128,-8 3,5 24,15 45,21 34,10 37,14 23,24 -14,10 -6,15 53,33 38,11 92,26 119,33 28,7 77,25 110,41 63,30 75,33 75,20 z m -421,-147 c -8,-8 -37,-17 -64,-21 -43,-4 -47,-4 -30,7 11,7 38,16 60,20 22,3 42,7 45,8 2,0 -2,-6 -11,-14 z m -89,-45 c 0,-5 -4,-10 -10,-10 -5,0 -10,5 -10,10 0,6 5,10 10,10 6,0 10,-4 10,-10 z M 405,1180 c 8,-13 -15,-13 -35,0 -12,8 -11,10 7,10 12,0 25,-4 28,-10 z m 5,-40 c 24,-15 7,-19 -20,-5 -15,8 -19,14 -10,14 8,1 22,-3 30,-9 z M 7080,910 c -20,-13 -43,-13 -35,0 3,6 16,10 28,10 18,0 19,-2 7,-10 z M 6105,802 c -10,-9 -129,-32 -161,-32 -18,1 -18,1 -1,11 33,19 181,38 162,21 z m 2274,-93 c -8,-5 -21,-9 -29,-9 -12,1 -11,4 4,15 10,8 23,12 29,8 5,-3 3,-9 -4,-14 z M 7780,550 c 0,-5 -4,-10 -10,-10 -5,0 -10,5 -10,10 0,6 5,10 10,10 6,0 10,-4 10,-10 z M 4710,136 c 0,-3 -4,-8 -10,-11 -5,-3 -10,-1 -10,4 0,6 5,11 10,11 6,0 10,-2 10,-4 z"
       id="path6"
       style="fill:#e86a28;fill-opacity:1" />
    <path
       d="m 8998,1423 c 6,-2 18,-2 25,0 6,3 1,5 -13,5 -14,0 -19,-2 -12,-5 z"
       id="path7"
       style="fill:#e86a28;fill-opacity:1" />
    <path
       d="m 8930,1410 c -13,-9 -13,-10 0,-9 8,0 24,4 35,9 l 20,9 h -20 c -11,0 -27,-4 -35,-9 z"
       id="path8"
       style="fill:#e86a28;fill-opacity:1" />
    <path
       d="m 8922,1601 c -84,-21 -106,-35 -42,-26 96,13 108,16 120,30 15,18 13,18 -78,-4 z"
       id="path9"
       style="fill:#e86a28;fill-opacity:1" />
    <path
       d="m 9065,1260 c -16,-7 -17,-9 -3,-9 9,-1 20,4 23,9 7,11 7,11 -20,0 z"
       id="path10"
       style="fill:#e86a28;fill-opacity:1" />
    <path
       d="m 8905,1240 c -3,-6 1,-7 9,-4 18,7 21,14 7,14 -6,0 -13,-4 -16,-10 z"
       id="path11"
       style="fill:#e86a28;fill-opacity:1" />
    <path
       d="m 8955,1220 c -3,-5 -2,-10 4,-10 5,0 13,5 16,10 3,6 2,10 -4,10 -5,0 -13,-4 -16,-10 z"
       id="path12"
       style="fill:#e86a28;fill-opacity:1" />
    <path
       d="m 8783,815 c -3,-9 -3,-18 -1,-21 3,-3 8,4 11,16 6,23 -1,27 -10,5 z"
       id="path13"
       style="fill:#e86a28;fill-opacity:1" />
    <path
       d="m 8340,660 c -14,-4 -19,-8 -12,-9 7,-1 10,-5 7,-11 -8,-13 2,-12 45,5 19,7 30,14 23,14 -6,1 -17,3 -25,5 -7,2 -24,0 -38,-4 z"
       id="path14"
       style="fill:#e86a28;fill-opacity:1" />
    <path
       d="m 8166,625 c -11,-8 -16,-15 -10,-15 5,0 18,7 28,15 11,8 16,15 10,15 -5,0 -18,-7 -28,-15 z"
       id="path15"
       style="fill:#e86a28;fill-opacity:1" />
    <path
       d="m 7986,601 c -4,-5 3,-7 14,-4 23,6 26,13 6,13 -8,0 -17,-4 -20,-9 z"
       id="path16"
       style="fill:#e86a28;fill-opacity:1" />
    <path
       d="m 7728,443 c 6,-2 18,-2 25,0 6,3 1,5 -13,5 -14,0 -19,-2 -12,-5 z"
       id="path17"
       style="fill:#e86a28;fill-opacity:1" />
    <path
       d="m 7608,353 c 7,-3 16,-2 19,1 4,3 -2,6 -13,5 -11,0 -14,-3 -6,-6 z"
       id="path18"
       style="fill:#e86a28;fill-opacity:1" />
    <path
       d="m 7118,263 c 7,-3 16,-2 19,1 4,3 -2,6 -13,5 -11,0 -14,-3 -6,-6 z"
       id="path19"
       style="fill:#e86a28;fill-opacity:1" />
    <path
       d="m 6558,183 c 7,-3 16,-2 19,1 4,3 -2,6 -13,5 -11,0 -14,-3 -6,-6 z"
       id="path20"
       style="fill:#e86a28;fill-opacity:1" />
    <path
       d="m 6073,133 c 15,-2 39,-2 55,0 15,2 2,4 -28,4 -30,0 -43,-2 -27,-4 z"
       id="path21"
       style="fill:#e86a28;fill-opacity:1" />
  </g>
</svg>
